<?xml version="1.0" encoding="UTF-8"?><svg id="Layer_1" xmlns="http://www.w3.org/2000/svg" viewBox="0 0 24 22.53"><defs><style>.cls-1{stroke-linejoin:round;}.cls-1,.cls-2,.cls-3{stroke:#000;stroke-width:1.93px;}.cls-1,.cls-3{fill:none;}.cls-4{fill:#a15e37;}.cls-4,.cls-5,.cls-6,.cls-7,.cls-8,.cls-9,.cls-10{stroke-width:0px;}.cls-5{fill:#85cb13;}.cls-2{fill:#fff;}.cls-2,.cls-3{stroke-miterlimit:10;}.cls-6{fill:#608034;}.cls-7{fill:#efb0cf;}.cls-8{fill:#67e3db;}.cls-9{fill:#212d4f;}.cls-10{fill:#3c9513;}</style></defs><g id="surface1"><path class="cls-2" d="M19,6.58V.97H5v5.62"/><path class="cls-1" d="M22,10.33h2"/><path class="cls-1" d="M0,10.33h2"/><path class="cls-3" d="M11,8.46H2v11.23c0,1.03.9,1.87,2,1.87h16c1.1,0,2-.84,2-1.87v-11.23h-9M16,8.46v2.81h-8v-2.81"/><path class="cls-4" d="M7,15.01c0,.52-.45.94-1,.94s-1-.42-1-.94.45-.94,1-.94,1,.42,1,.94Z"/><path class="cls-7" d="M9,17.81c0,.52-.45.94-1,.94s-1-.42-1-.94.45-.94,1-.94,1,.42,1,.94Z"/><path class="cls-5" d="M11,15.01c0,.52-.45.94-1,.94s-1-.42-1-.94.45-.94,1-.94,1,.42,1,.94Z"/><path class="cls-8" d="M13,17.81c0,.52-.45.94-1,.94s-1-.42-1-.94.45-.94,1-.94,1,.42,1,.94Z"/><path class="cls-6" d="M17,17.81c0,.52-.45.94-1,.94s-1-.42-1-.94.45-.94,1-.94,1,.42,1,.94Z"/><path class="cls-10" d="M15,15.01c0,.52-.45.94-1,.94s-1-.42-1-.94.45-.94,1-.94,1,.42,1,.94Z"/><path class="cls-9" d="M19,15.01c0,.52-.45.94-1,.94s-1-.42-1-.94.45-.94,1-.94,1,.42,1,.94Z"/></g></svg>